<svg id="logo" xmlns="http://www.w3.org/2000/svg" viewBox="0 0 271.87 60.83"><defs><style>.cls-1{fill:#fff;}</style></defs><title>BAI_logo_white</title><path class="cls-1" d="M93.21,38.74c-1.87,0-3.72-.06-5.57-.17a39.14,39.14,0,0,1-5.76-.79V5.67A51,51,0,0,1,87,5c1.86-.14,3.59-.22,5.2-.22a36.5,36.5,0,0,1,6,.46,14.38,14.38,0,0,1,4.69,1.55,8.27,8.27,0,0,1,3.06,2.89A8.26,8.26,0,0,1,107,14.13c0,2.65-1.31,4.73-3.93,6.26a8.05,8.05,0,0,1,4.42,3.25,9.18,9.18,0,0,1,1.17,4.63,8.82,8.82,0,0,1-3.9,7.84Q100.92,38.74,93.21,38.74ZM89.33,18.19h3.73a10.62,10.62,0,0,0,5-.88,3,3,0,0,0,1.52-2.84,2.9,2.9,0,0,0-1.57-2.82,10.33,10.33,0,0,0-4.61-.82l-2.11,0q-1.12,0-2,.12Zm0,5.69v8.55c.56.07,1.16.11,1.82.14s1.37,0,2.15,0a13.74,13.74,0,0,0,5.55-.95A3.55,3.55,0,0,0,101,28.13a3.43,3.43,0,0,0-1.77-3.27,10.61,10.61,0,0,0-5-1Z"/><path class="cls-1" d="M114.49,5.2h7.65V38.31h-7.65Z"/><path class="cls-1" d="M155.68,5.2v6.35H145.43V38.31h-7.65V11.55H127.53V5.2Z"/><path class="cls-1" d="M174.66,39q-8.28,0-12.62-4.49T157.7,21.73A19.25,19.25,0,0,1,159,14.39,15.65,15.65,0,0,1,162.65,9a15.25,15.25,0,0,1,5.49-3.37,20.18,20.18,0,0,1,6.92-1.15,23.43,23.43,0,0,1,3.92.31,26.43,26.43,0,0,1,3.09.72,15.22,15.22,0,0,1,2.21.84c.59.28,1,.51,1.27.66l-2.21,6A17.82,17.82,0,0,0,175,11a10.77,10.77,0,0,0-3.46.57,7.88,7.88,0,0,0-3,1.84,9,9,0,0,0-2.08,3.27,13.27,13.27,0,0,0-.79,4.88,16.65,16.65,0,0,0,.52,4.27,9,9,0,0,0,1.66,3.42,8.11,8.11,0,0,0,3,2.27,11.11,11.11,0,0,0,4.51.83,20.7,20.7,0,0,0,3-.19c.89-.13,1.67-.28,2.36-.45a13.7,13.7,0,0,0,1.81-.6l1.42-.62,2.11,6a18.14,18.14,0,0,1-4.56,1.72A27.2,27.2,0,0,1,174.66,39Z"/><path class="cls-1" d="M222.58,21.73a20.06,20.06,0,0,1-1.3,7.48,15.19,15.19,0,0,1-3.56,5.39,14.57,14.57,0,0,1-5.37,3.28,20,20,0,0,1-6.69,1.1,19.53,19.53,0,0,1-6.57-1.1,14.94,14.94,0,0,1-9-8.67,19.66,19.66,0,0,1-1.32-7.48,19.05,19.05,0,0,1,1.37-7.48,15.83,15.83,0,0,1,3.71-5.42,15.18,15.18,0,0,1,5.39-3.3,19,19,0,0,1,6.45-1.1,19.53,19.53,0,0,1,6.57,1.1,14.83,14.83,0,0,1,5.39,3.3,15.38,15.38,0,0,1,3.63,5.42A19.43,19.43,0,0,1,222.58,21.73Zm-26,0a14.59,14.59,0,0,0,.62,4.39A10.09,10.09,0,0,0,199,29.49a7.83,7.83,0,0,0,2.82,2.18,10,10,0,0,0,7.63,0,7.65,7.65,0,0,0,2.84-2.18,9.92,9.92,0,0,0,1.77-3.37,14.6,14.6,0,0,0,.61-4.39,14.85,14.85,0,0,0-.61-4.42,9.93,9.93,0,0,0-1.77-3.39,7.65,7.65,0,0,0-2.84-2.18,9.15,9.15,0,0,0-3.8-.76,8.8,8.8,0,0,0-3.83.79A8.08,8.08,0,0,0,199,14a10.14,10.14,0,0,0-1.76,3.4A14.7,14.7,0,0,0,196.63,21.73Z"/><path class="cls-1" d="M228.51,5.2h7.65V38.31h-7.65Z"/><path class="cls-1" d="M265.44,38.31q-3.29-5.69-7.11-11.23a114.41,114.41,0,0,0-8.14-10.46V38.31h-7.55V5.2h6.22c1.08,1,2.28,2.34,3.58,3.87s2.64,3.16,4,4.89,2.71,3.54,4.05,5.4,2.6,3.66,3.77,5.38V5.2h7.61V38.31Z"/><path class="cls-1" d="M90.18,55.64c-.12-.36-.25-.74-.39-1.12s-.27-.77-.41-1.15h-4.2c-.14.38-.27.76-.41,1.15s-.26.76-.38,1.12H81.87c.41-1.13.79-2.18,1.16-3.14s.72-1.87,1.06-2.72.69-1.66,1-2.42.69-1.51,1-2.24h2.3c.35.73.7,1.47,1,2.24s.69,1.57,1,2.42.7,1.76,1.07,2.72.75,2,1.15,3.14ZM87.27,47.5q-.08.22-.24.63c-.1.26-.22.56-.35.91s-.29.72-.45,1.14l-.5,1.3h3.08c-.17-.45-.33-.89-.48-1.31s-.3-.79-.44-1.14-.26-.65-.37-.91S87.33,47.65,87.27,47.5Z"/><path class="cls-1" d="M106.46,53.84a3.35,3.35,0,0,0,.85-.09,1.37,1.37,0,0,0,.53-.23.7.7,0,0,0,.28-.34,1,1,0,0,0,.08-.44,1,1,0,0,0-.49-.86,7.79,7.79,0,0,0-1.71-.73c-.35-.12-.71-.26-1.06-.42a3.74,3.74,0,0,1-.94-.59,3,3,0,0,1-.69-.87,2.74,2.74,0,0,1-.26-1.24,3,3,0,0,1,.28-1.31,2.71,2.71,0,0,1,.79-1,3.55,3.55,0,0,1,1.24-.64,6,6,0,0,1,1.65-.22,6.8,6.8,0,0,1,3.18.73l-.7,1.87a7.18,7.18,0,0,0-1-.4,4.32,4.32,0,0,0-1.33-.18,2.46,2.46,0,0,0-1.25.24.8.8,0,0,0-.38.72.86.86,0,0,0,.14.49,1.26,1.26,0,0,0,.4.35,2.7,2.7,0,0,0,.59.29l.73.27a14.51,14.51,0,0,1,1.46.6,4.09,4.09,0,0,1,1,.69,2.55,2.55,0,0,1,.61.93,3.72,3.72,0,0,1,.2,1.29,2.71,2.71,0,0,1-1,2.28,5.15,5.15,0,0,1-3.19.82,8.52,8.52,0,0,1-1.29-.09,7.51,7.51,0,0,1-1-.2,5.55,5.55,0,0,1-.76-.26c-.21-.09-.39-.18-.54-.26l.68-1.88a6.9,6.9,0,0,0,1.19.46A6.15,6.15,0,0,0,106.46,53.84Z"/><path class="cls-1" d="M124.58,53.84a3.26,3.26,0,0,0,.84-.09,1.35,1.35,0,0,0,.54-.23.76.76,0,0,0,.28-.34,1.23,1.23,0,0,0,.08-.44,1,1,0,0,0-.5-.86,7.37,7.37,0,0,0-1.71-.73q-.52-.18-1-.42a4,4,0,0,1-1-.59,2.77,2.77,0,0,1-.68-.87,2.61,2.61,0,0,1-.27-1.24,3.1,3.1,0,0,1,.28-1.31,2.82,2.82,0,0,1,.79-1,3.69,3.69,0,0,1,1.25-.64,5.86,5.86,0,0,1,1.64-.22,6.9,6.9,0,0,1,1.88.23,6.69,6.69,0,0,1,1.3.5l-.69,1.87a7.33,7.33,0,0,0-1-.4,4.25,4.25,0,0,0-1.32-.18,2.43,2.43,0,0,0-1.25.24.89.89,0,0,0-.24,1.21,1.22,1.22,0,0,0,.39.35,3,3,0,0,0,.59.29l.74.27a14.51,14.51,0,0,1,1.46.6,4,4,0,0,1,1,.69,2.32,2.32,0,0,1,.61.93,3.48,3.48,0,0,1,.21,1.29A2.72,2.72,0,0,1,127.76,55a5.1,5.1,0,0,1-3.18.82,8.33,8.33,0,0,1-1.29-.09,8,8,0,0,1-1-.2,6.06,6.06,0,0,1-.76-.26,5.28,5.28,0,0,1-.53-.26l.68-1.88a6.59,6.59,0,0,0,1.19.46A6.15,6.15,0,0,0,124.58,53.84Z"/><path class="cls-1" d="M150,50.37a6.25,6.25,0,0,1-.41,2.38,4.93,4.93,0,0,1-1.12,1.72,4.84,4.84,0,0,1-1.7,1,6.41,6.41,0,0,1-2.12.35,6.18,6.18,0,0,1-2.08-.35,5,5,0,0,1-1.71-1,4.86,4.86,0,0,1-1.15-1.72,6.24,6.24,0,0,1-.42-2.38,6,6,0,0,1,.44-2.37,5.08,5.08,0,0,1,1.17-1.73,5,5,0,0,1,1.71-1.05,6,6,0,0,1,2-.35,6.22,6.22,0,0,1,2.08.35A4.75,4.75,0,0,1,149.59,48,6.19,6.19,0,0,1,150,50.37Zm-8.21,0a4.69,4.69,0,0,0,.2,1.4,3,3,0,0,0,.56,1.07,2.41,2.41,0,0,0,.89.69,3,3,0,0,0,2.41,0,2.36,2.36,0,0,0,.9-.69,3,3,0,0,0,.56-1.07,4.69,4.69,0,0,0,.2-1.4,4.73,4.73,0,0,0-.2-1.4,3.08,3.08,0,0,0-.56-1.08,2.36,2.36,0,0,0-.9-.69,2.89,2.89,0,0,0-1.2-.24,2.73,2.73,0,0,0-1.21.25,2.52,2.52,0,0,0-.89.69A3.08,3.08,0,0,0,142,49,4.71,4.71,0,0,0,141.79,50.37Z"/><path class="cls-1" d="M165.59,55.86a5.31,5.31,0,0,1-4-1.43,5.63,5.63,0,0,1-1.37-4.06,6.12,6.12,0,0,1,.42-2.33,5,5,0,0,1,1.15-1.73,4.68,4.68,0,0,1,1.74-1.07,6.44,6.44,0,0,1,2.18-.37A7.92,7.92,0,0,1,167,45a8.21,8.21,0,0,1,1,.23,5.18,5.18,0,0,1,.7.27l.41.21-.7,1.91a6,6,0,0,0-1.16-.44,5.71,5.71,0,0,0-1.5-.18,3.41,3.41,0,0,0-1.09.18,2.42,2.42,0,0,0-1,.59,3,3,0,0,0-.66,1,4.38,4.38,0,0,0-.25,1.55,5.39,5.39,0,0,0,.17,1.36,2.72,2.72,0,0,0,.52,1.08,2.49,2.49,0,0,0,1,.72,3.41,3.41,0,0,0,1.43.27,6.65,6.65,0,0,0,.94-.06c.28,0,.53-.09.75-.14a4.21,4.21,0,0,0,.57-.19l.45-.2.67,1.9a5.75,5.75,0,0,1-1.44.54A8.22,8.22,0,0,1,165.59,55.86Z"/><path class="cls-1" d="M179.33,45.12h2.42V55.64h-2.42Z"/><path class="cls-1" d="M200.13,55.64c-.12-.36-.25-.74-.39-1.12s-.27-.77-.41-1.15h-4.2c-.14.38-.27.76-.41,1.15s-.26.76-.38,1.12h-2.52c.41-1.13.79-2.18,1.16-3.14s.71-1.87,1.06-2.72.69-1.66,1-2.42.69-1.51,1.05-2.24h2.3c.35.73.7,1.47,1,2.24s.69,1.57,1,2.42.7,1.76,1.07,2.72.74,2,1.15,3.14Zm-2.91-8.14-.24.63-.36.91-.44,1.14c-.17.41-.33.85-.5,1.3h3.07l-.47-1.31c-.16-.41-.3-.79-.44-1.14s-.26-.65-.37-.91S197.28,47.65,197.22,47.5Z"/><path class="cls-1" d="M219.89,45.12v2h-3.25v8.5h-2.42v-8.5H211v-2Z"/><path class="cls-1" d="M230,45.12h2.42V55.64H230Z"/><path class="cls-1" d="M252.58,50.37a6.45,6.45,0,0,1-.41,2.38A4.82,4.82,0,0,1,251,54.47a4.67,4.67,0,0,1-1.7,1,6.31,6.31,0,0,1-2.11.35,6.18,6.18,0,0,1-2.08-.35,4.8,4.8,0,0,1-1.71-1,4.86,4.86,0,0,1-1.15-1.72,6.24,6.24,0,0,1-.42-2.38A6,6,0,0,1,242.3,48a5.11,5.11,0,0,1,1.18-1.73,5.05,5.05,0,0,1,1.7-1.05,6.09,6.09,0,0,1,2-.35,6.26,6.26,0,0,1,2.08.35A4.77,4.77,0,0,1,252.16,48,6.19,6.19,0,0,1,252.58,50.37Zm-8.21,0a4.69,4.69,0,0,0,.19,1.4,3.2,3.2,0,0,0,.56,1.07,2.49,2.49,0,0,0,.89.69,3.05,3.05,0,0,0,2.42,0,2.44,2.44,0,0,0,.9-.69,3.2,3.2,0,0,0,.56-1.07,5.25,5.25,0,0,0,0-2.8,3.25,3.25,0,0,0-.56-1.08,2.44,2.44,0,0,0-.9-.69,2.92,2.92,0,0,0-1.2-.24,2.8,2.8,0,0,0-1.22.25,2.61,2.61,0,0,0-.89.69,3.25,3.25,0,0,0-.56,1.08A4.72,4.72,0,0,0,244.37,50.37Z"/><path class="cls-1" d="M269.83,55.64q-1.05-1.8-2.25-3.57A37.15,37.15,0,0,0,265,48.75v6.89h-2.39V45.12h2a16.32,16.32,0,0,1,1.13,1.23c.42.48.84,1,1.27,1.55s.85,1.13,1.28,1.72.82,1.16,1.19,1.71V45.12h2.41V55.64Z"/><path class="cls-1" d="M31.66,28.14a5.41,5.41,0,0,0,2.9-.89,2.74,2.74,0,0,0,.67-.63,3,3,0,0,0,.54-1A4.09,4.09,0,0,0,36,24.38a3.14,3.14,0,0,0-.57-1.73A4.26,4.26,0,0,0,32,21l-.34,0h-4v7.15Z"/><path class="cls-1" d="M33.17,31.74c-.12,0-.23,0-.36,0H27.59v7.74h5.24a5.78,5.78,0,0,0,3.14-1,3.18,3.18,0,0,0,.73-.68,3.47,3.47,0,0,0,.58-1.06,4.71,4.71,0,0,0,.24-1.37,3.24,3.24,0,0,0-.63-1.86A4.55,4.55,0,0,0,33.17,31.74Z"/><path class="cls-1" d="M56.8,0H4A4,4,0,0,0,0,4V56.8a4,4,0,0,0,4,4H56.8a4,4,0,0,0,4-4V4A4,4,0,0,0,56.8,0ZM35.07,43.66h-.31v4.18H30.46v-4.2H27.59v4.19H23.22V43.65H18l.85-4.19s1,0,1.64,0a1.07,1.07,0,0,0,1-1V22.26c0-.64-.66-1.56-2.11-1.56H17.8V17s4.63,0,5.4,0V12.85h4.4V17h2.88V12.84h4.29V17s.6,0,.81,0c2.65.26,7,2.31,7,6.67,0,2.75-1.3,4.2-3.18,5.5,1.77.64,5.1,2.88,5,6.77C44.34,40.73,40,43.66,35.07,43.66Z"/></svg>