<svg id="Logo" xmlns="http://www.w3.org/2000/svg" viewBox="0 0 2000 447.68"><defs><style>.cls-1{fill:#eab300;}.cls-2{fill:#fff;}</style></defs><title>ESV_logo_wh_RGB_full</title><path class="cls-1" d="M1932,247.35q-10.63-20.34-21.6-47.61t-20.76-59.41h32.85q2.08,7.93,4.91,17.19t5.84,18.72q3,9.47,6.06,18.41t6,16.28q2.71-7.34,5.84-16.28t6.16-18.41q3-9.47,5.85-18.72t4.9-17.19h32q-9.8,32.14-20.75,59.41t-21.57,47.61Z"/><path class="cls-1" d="M1883.69,206.35a23.69,23.69,0,0,0-5.41-9.24,40.07,40.07,0,0,0-10.49-7.75,128.35,128.35,0,0,0-16.84-7.28q-5-1.85-8.21-3.39a34.52,34.52,0,0,1-5.1-2.86,7,7,0,0,1-2.49-2.75,7.92,7.92,0,0,1-.62-3.25q0-7.94,14.55-7.94a65.18,65.18,0,0,1,14.24,1.43,118.86,118.86,0,0,1,11.74,3.25l5.42,2.06V143a91.35,91.35,0,0,0-14.55-3.76,103.12,103.12,0,0,0-19.13-1.73q-19.95,0-31.39,8.75T1804,170a34.45,34.45,0,0,0,2.28,13.23,27.72,27.72,0,0,0,6.45,9.46,38.67,38.67,0,0,0,10.08,6.81A140.51,140.51,0,0,0,1836,205a88.31,88.31,0,0,1,13.93,6.2q4.58,2.75,4.57,6.41c0,3.12-1.18,5.23-3.53,6.31s-6.38,1.63-12.06,1.63a80.69,80.69,0,0,1-16.42-1.73,103.17,103.17,0,0,1-16.2-4.78v26.44c2.23.68,5,1.43,8.19,2.24q9.68,2.44,24.22,2.45,22.24,0,34.41-8.13t12.16-23.95A40.14,40.14,0,0,0,1883.69,206.35Z"/><polygon class="cls-2" points="707.87 140.55 663.78 140.55 663.78 306.7 783.68 306.7 783.68 268.44 707.87 268.44 707.87 140.55"/><polygon class="cls-2" points="848.96 240.58 915.08 240.58 915.08 205.79 804.87 205.74 804.87 306.7 926.94 306.7 926.94 270.85 848.96 270.85 848.96 240.58"/><polygon class="cls-2" points="926.95 176.02 926.95 140.55 804.87 140.55 804.87 176.12 926.95 176.02"/><polygon class="cls-2" points="564.88 240.58 631 240.58 631 205.79 520.79 205.74 520.79 306.7 642.87 306.7 642.87 270.85 564.88 270.85 564.88 240.58"/><polygon class="cls-2" points="642.87 176.02 642.87 140.55 520.79 140.55 520.79 176.12 642.87 176.02"/><path class="cls-2" d="M1021,176.64c22.53,0,32.46,14,34.88,27.61H1099c-3.64-36.33-27.13-65.87-79.21-65.87-47,0-80.9,34.14-80.9,85,0,49.9,33.92,85,80.9,85,52.56,0,75.33-30.27,79.21-65.89h-43.12c-2.17,14.3-11.14,27.63-34.63,27.63-21.56,0-37.54-17.69-37.79-46.76C983.19,194.57,999.42,176.64,1021,176.64Z"/><polygon class="cls-2" points="1104.81 176.88 1155.68 176.88 1155.68 306.7 1199.76 306.7 1199.76 176.88 1250.86 176.88 1250.86 140.55 1104.81 140.55 1104.81 176.88"/><path class="cls-2" d="M1533.11,239.14c0,20.33-10.17,31.24-29.06,31.24-19.13,0-29.3-10.91-29.3-31.24V140.55h-44.09l-.24,98.59c0,43.11,27.61,69.26,73.63,69.26,45.29,0,73.14-26.15,73.14-69.26V140.55h-44.08Z"/><polygon class="cls-2" points="1691.51 256.57 1653.48 140.55 1598.01 140.55 1598.26 306.7 1640.64 306.7 1640.64 194.81 1678.18 306.7 1704.83 306.7 1742.37 194.81 1742.37 306.7 1784.75 306.7 1784.99 140.55 1729.53 140.55 1691.51 256.57"/><path class="cls-2" d="M1416.5,272.77c-2.43.73-8.44.7-11.92-1.52-6.37-4.05-8-9-11.42-15.56L1382,233.33c18.69-2.62,27.23-16,27.23-37.63,0-35.25-23.33-55.43-66.12-55.43h-71v35.81h72c5.5,0,10.57,1,13,2.34a18,18,0,0,1,1.94,1.13,14.26,14.26,0,0,1,1.27,1,12.68,12.68,0,0,1,2.21,2.7,13.35,13.35,0,0,1,2.17,7.81c0,8.16-4.91,12.38-12.56,14-4.15.9-14,.65-16,.63h-64V307.05h44.25v-65H1338l15.32,30.14c8.26,16.3,18.23,36,44.73,36a65.56,65.56,0,0,0,20.66-2.91Z"/><path class="cls-1" d="M87.09,235.31c5.28,67,59.58,121.35,126.61,126.64A138.35,138.35,0,0,0,362.79,212.87,136.07,136.07,0,0,0,350,165.16c-.29,0-.57.05-.86.05a99.48,99.48,0,0,1-96.62-76.54,135.57,135.57,0,0,0-16.35-2.42A138.32,138.32,0,0,0,87.09,235.31ZM248,166c11.54,1.13,30.51,10.08,30.51,29.15,0,12-5.66,18.37-13.9,24,7.74,2.79,22.29,12.61,22,29.61-.29,20.74-19.16,33.56-40.81,33.56l-1.38,0v18.27H225.65l0-18.37H213.1l0,18.34H194l0-18.32-23,0,3.69-18.3s4.28.09,7.16,0a4.65,4.65,0,0,0,4.25-4.5V188.77c0-2.78-2.85-6.79-9.19-6.78-1.47,0-6.58,0-6.58,0V165.82s20.23,0,23.61-.06l0-18.08h19.19l0,18.17,12.58,0-.05-18.25,18.78,0,0,18.24S247,165.88,248,166Z"/><path class="cls-2" d="M225.63,147.63l.05,18.25-12.58,0,0-18.17H193.94l0,18.08c-3.38.08-23.61.06-23.61.06V182s5.11,0,6.58,0c6.34,0,9.19,4,9.19,6.78v70.64a4.65,4.65,0,0,1-4.25,4.5c-2.88.13-7.16,0-7.16,0L171,282.25l23,0,0,18.32h19.14l0-18.34h12.58l0,18.37h18.76V282.35l1.38,0c21.65,0,40.52-12.82,40.81-33.56.25-17-14.3-26.82-22-29.61,8.24-5.65,13.9-12,13.9-24,0-19.07-19-28-30.51-29.15-.94-.1-3.57-.15-3.57-.15l0-18.24Z"/><path class="cls-1" d="M235.91,230.08l-22.82,0v33.8c.29,0,22.86,0,22.93,0,6.27-.31,10.62-2,13.72-4.2a13.07,13.07,0,0,0,3.17-3,15.32,15.32,0,0,0,2.55-4.61,20,20,0,0,0,1-6,14.54,14.54,0,0,0-2.73-8.17c-2.78-4-8-7.27-16.27-7.68C237,230.19,236.48,230.08,235.91,230.08Z"/><path class="cls-1" d="M230.78,183.26c-5.65,0-15.12,0-17.69,0v31.29c.27,0,17.72,0,17.8,0,5.8-.28,9.82-1.86,12.69-3.88a12.19,12.19,0,0,0,2.93-2.76,14,14,0,0,0,2.36-4.27,18.35,18.35,0,0,0,1-5.52,13.52,13.52,0,0,0-2.52-7.56c-2.57-3.67-7.36-6.73-15.06-7.1C231.74,183.35,231.31,183.26,230.78,183.26Z"/><path class="cls-2" d="M447,205.67a220.08,220.08,0,0,0-20.73-77.26,225.22,225.22,0,0,0-23-37.86A59.29,59.29,0,0,0,313,18.76,220.5,220.5,0,0,0,270.65,5.12,218.58,218.58,0,0,0,242,.72Q232.83,0,223.84,0C94.23,0-9.67,110.18.72,242c8.54,108.5,96.44,196.42,204.94,205q9.18.72,18.18.71C353.46,447.68,457.37,337.48,447,205.67ZM349.08,37.87a27.94,27.94,0,1,1-27.94,27.94A27.94,27.94,0,0,1,349.08,37.87ZM223.84,412.51c-5.08,0-10.17-.2-15.32-.6C117.06,404.69,43,330.59,35.78,239.14,27,128,114.6,35.17,223.84,35.17q7.59,0,15.32.61c5,.39,9.88,1.07,14.75,1.85a185,185,0,0,1,38.57,10.62,59,59,0,0,0-3,17.59,59.67,59.67,0,0,0,59.61,59.6,58.89,58.89,0,0,0,30-8.39,188.51,188.51,0,0,1,19,35.11,184.78,184.78,0,0,1,13.74,56.37C420.68,319.62,333.09,412.51,223.84,412.51Z"/></svg>