<svg id="Layer_1" data-name="Layer 1" xmlns="http://www.w3.org/2000/svg" viewBox="0 0 2000 2000.04"><defs><style>.cls-1{fill:#eab300;}.cls-2{fill:#fff;}.cls-3{fill:#4d4d4d;}</style></defs><title>ESV_atomicon_RGB_full</title><path class="cls-1" d="M389.07,1051.26c23.57,299.47,266.19,542.12,565.66,565.75,380.72,30,696.07-285.34,666-666a607.48,607.48,0,0,0-57.17-213.13c-1.28,0-2.52.19-3.83.19-209.64,0-385.36-146.22-431.63-341.92-23.95-4.87-48.21-8.87-73.06-10.83C674.44,355.27,359.08,670.57,389.07,1051.26Zm718.68-309.74c51.57,5.07,136.3,45,136.3,130.22,0,53.63-25.25,82.06-62.06,107.32,34.56,12.45,99.58,56.34,98.43,132.27-1.27,92.66-85.6,149.94-182.32,149.94-1.53,0-6.14.16-6.14.16l-.06,81.6h-83.8l.13-82.07H952l.16,81.92H866.67l.06-81.82L763.9,1261l16.51-81.76s19.12.41,32-.16c9.78-.51,18.59-9.11,19-20.12V847.87l-.06-4.51c0-12.45-12.73-30.38-41.07-30.33-6.54-.11-29.4-.11-29.4-.11V740.8s90.4.1,105.47-.26l.1-80.78,85.76,0L952,740.9l56.21.16-.22-81.51,83.89-.2-.09,81.5S1103.55,741.06,1107.75,741.52Z"/><path class="cls-2" d="M1008,659.55l.22,81.51L952,740.9l.16-81.19-85.76,0-.1,80.78c-15.07.36-105.47.26-105.47.26v72.12s22.86,0,29.4.11c28.34,0,41.07,17.88,41.07,30.33l.06,4.51v311.05c-.4,11-9.21,19.61-19,20.12-12.86.57-32,.16-32,.16L763.9,1261l102.83.1-.06,81.82h85.51L952,1261h56.21l-.13,82.07h83.8l.06-81.6s4.61-.16,6.14-.16c96.72,0,181.05-57.28,182.32-149.94,1.15-75.93-63.87-119.82-98.43-132.27,36.81-25.26,62.06-53.69,62.06-107.32,0-85.2-84.73-125.15-136.3-130.22-4.2-.46-15.94-.67-15.94-.67l.09-81.5Z"/><path class="cls-1" d="M1053.94,1027.91c-27.31,0-89.56-.12-102-.17v151c1.31.07,102.11-.14,102.45-.16,28-1.35,47.43-9,61.28-18.72,4-2.84,7.76-5.48,14.17-13.34a67.69,67.69,0,0,0,11.37-20.6,88.7,88.7,0,0,0,4.67-26.68c0-11.18-3.77-24.43-12.21-36.48-12.42-17.75-35.53-32.5-72.68-34.3C1058.61,1028.36,1056.49,1027.91,1053.94,1027.91Z"/><path class="cls-1" d="M1031,818.72c-25.25,0-67.57-.11-79-.16V958.31c1.21.06,79.16-.13,79.5-.15,25.91-1.25,43.88-8.32,56.71-17.32,3.73-2.63,7.16-5.07,13.11-12.35a62.6,62.6,0,0,0,10.52-19.07,81.79,81.79,0,0,0,4.3-24.68c0-10.34-3.49-22.6-11.27-33.76-11.5-16.42-32.89-30.07-67.27-31.73C1035.32,819.14,1033.39,818.72,1031,818.72Z"/><path class="cls-3" d="M1996.78,918.84a981.91,981.91,0,0,0-92.61-345.18c-28.52-60-63.4-116.33-102.82-169.15,15.44-33.72,24.66-70.88,24.66-110.36,0-146.82-119.45-266.27-266.25-266.27-60.9,0-116.46,21.38-161.36,55.93a984.87,984.87,0,0,0-189.27-60.93c-41.92-9-84.39-16.23-127.93-19.67Q1040.19,0,1000,0C421,0-43.2,492.23,3.2,1081.1c38.18,484.74,430.85,877.49,915.58,915.73q41,3.23,81.21,3.21C1579.07,2000,2043.31,1507.69,1996.78,918.84ZM1559.54,169.18A124.82,124.82,0,1,1,1434.72,294,124.82,124.82,0,0,1,1559.54,169.18ZM1000,1842.91c-22.67,0-45.4-.89-68.44-2.71C523,1808,192,1476.93,159.83,1068.36,120.72,572,512,157.14,1000,157.13q33.91,0,68.45,2.71c22.23,1.75,44.15,4.77,65.89,8.26a826.47,826.47,0,0,1,172.33,47.48c-7.79,25-13.2,51-13.2,78.57,0,146.83,119.45,266.28,266.3,266.28,49.08,0,94.48-14.27,134-37.52,33.82,48.82,62,101.5,85,156.88,32.76,78.93,54.43,163.37,61.41,251.81C1879.39,1427.92,1488.08,1842.91,1000,1842.91Z"/></svg>