<?xml version="1.0" encoding="UTF-8"?>
<svg xmlns="http://www.w3.org/2000/svg" xmlns:xlink="http://www.w3.org/1999/xlink" viewBox="0 0 96 96" width="96px" height="96px">
<g id="surface9520596">
<path style=" stroke:none;fill-rule:nonzero;fill:rgb(0%,0%,0%);fill-opacity:1;" d="M 87 36 C 87 38.058594 86.765625 40.070312 86.320312 42 L 80.125 42 C 80.695312 40.097656 81 38.082031 81 36 C 81 24.433594 71.566406 15 60 15 C 48.433594 15 39 24.433594 39 36 C 39 37.464844 39.257812 39.070312 39.5625 40.875 L 39.84375 42.46875 L 38.71875 43.5 L 15 67.3125 L 15 81 L 24 81 L 24 72 L 33 72 L 33 63 L 42 63 L 42 69 L 39 69 L 39 78 L 30 78 L 30 87 L 9 87 L 9 64.78125 L 9.84375 63.84375 L 33.46875 40.3125 C 33.257812 38.929688 33 37.558594 33 36 C 33 21.164062 45.164062 9 60 9 C 74.835938 9 87 21.164062 87 36 Z M 42 54 L 49.03125 54 L 49.78125 54.375 C 51.847656 55.503906 54.378906 56.375 57 56.769531 L 57 57 L 42 57 Z M 72 30 C 72 33.316406 69.316406 36 66 36 C 62.683594 36 60 33.316406 60 30 C 60 26.683594 62.683594 24 66 24 C 69.316406 24 72 26.683594 72 30 Z M 72 30 "/>
<path style=" stroke:none;fill-rule:nonzero;fill:rgb(0%,0%,0%);fill-opacity:1;" d="M 81 96 L 63 96 L 63 81 L 48 81 L 48 63 L 63 63 L 63 48 L 81 48 L 81 63 L 96 63 L 96 81 L 81 81 Z M 69 90 L 75 90 L 75 75 L 90 75 L 90 69 L 75 69 L 75 54 L 69 54 L 69 69 L 54 69 L 54 75 L 69 75 Z M 69 90 "/>
</g>
</svg>
